<mxfile host="app.diagrams.net" modified="2023-03-18T09:57:10.529Z" agent="5.0 (Windows NT 10.0; Win64; x64) AppleWebKit/537.36 (KHTML, like Gecko) Chrome/109.0.0.0 Safari/537.36" etag="UJ29HaNUcLYaNGNcXzx-" version="21.0.8" type="github">
  <diagram id="C5RBs43oDa-KdzZeNtuy" name="Page-1">
    <mxGraphModel dx="1265" dy="1209" grid="1" gridSize="10" guides="1" tooltips="1" connect="1" arrows="1" fold="1" page="1" pageScale="1" pageWidth="827" pageHeight="1169" math="0" shadow="0">
      <root>
        <mxCell id="WIyWlLk6GJQsqaUBKTNV-0" />
        <mxCell id="WIyWlLk6GJQsqaUBKTNV-1" parent="WIyWlLk6GJQsqaUBKTNV-0" />
        <mxCell id="JRmY_iP4Rora6nTUR1a2-0" value="" style="edgeStyle=orthogonalEdgeStyle;rounded=0;orthogonalLoop=1;jettySize=auto;html=1;" parent="WIyWlLk6GJQsqaUBKTNV-1" source="JRmY_iP4Rora6nTUR1a2-1" target="JRmY_iP4Rora6nTUR1a2-3" edge="1">
          <mxGeometry relative="1" as="geometry" />
        </mxCell>
        <mxCell id="JRmY_iP4Rora6nTUR1a2-1" value="Начало" style="rounded=1;whiteSpace=wrap;html=1;fontSize=12;glass=0;strokeWidth=1;shadow=0;" parent="WIyWlLk6GJQsqaUBKTNV-1" vertex="1">
          <mxGeometry x="160" y="80" width="120" height="40" as="geometry" />
        </mxCell>
        <mxCell id="JRmY_iP4Rora6nTUR1a2-2" value="" style="edgeStyle=orthogonalEdgeStyle;rounded=0;orthogonalLoop=1;jettySize=auto;html=1;" parent="WIyWlLk6GJQsqaUBKTNV-1" source="JRmY_iP4Rora6nTUR1a2-3" target="JRmY_iP4Rora6nTUR1a2-5" edge="1">
          <mxGeometry relative="1" as="geometry" />
        </mxCell>
        <mxCell id="JRmY_iP4Rora6nTUR1a2-3" value="Генерируем&amp;nbsp; массив &lt;br&gt;случайных чисел" style="shape=parallelogram;perimeter=parallelogramPerimeter;whiteSpace=wrap;html=1;fixedSize=1;rounded=1;glass=0;strokeWidth=1;shadow=0;" parent="WIyWlLk6GJQsqaUBKTNV-1" vertex="1">
          <mxGeometry x="120" y="140" width="200" height="70" as="geometry" />
        </mxCell>
        <mxCell id="JRmY_iP4Rora6nTUR1a2-4" value="" style="edgeStyle=orthogonalEdgeStyle;rounded=0;orthogonalLoop=1;jettySize=auto;html=1;" parent="WIyWlLk6GJQsqaUBKTNV-1" source="JRmY_iP4Rora6nTUR1a2-5" target="JRmY_iP4Rora6nTUR1a2-7" edge="1">
          <mxGeometry relative="1" as="geometry" />
        </mxCell>
        <mxCell id="JRmY_iP4Rora6nTUR1a2-5" value="Выводим массив&amp;nbsp;" style="shape=parallelogram;perimeter=parallelogramPerimeter;whiteSpace=wrap;html=1;fixedSize=1;rounded=1;glass=0;strokeWidth=1;shadow=0;" parent="WIyWlLk6GJQsqaUBKTNV-1" vertex="1">
          <mxGeometry x="115" y="230" width="210" height="60" as="geometry" />
        </mxCell>
        <mxCell id="JRmY_iP4Rora6nTUR1a2-6" value="" style="edgeStyle=orthogonalEdgeStyle;rounded=0;orthogonalLoop=1;jettySize=auto;html=1;" parent="WIyWlLk6GJQsqaUBKTNV-1" source="JRmY_iP4Rora6nTUR1a2-7" target="JRmY_iP4Rora6nTUR1a2-9" edge="1">
          <mxGeometry relative="1" as="geometry" />
        </mxCell>
        <mxCell id="JRmY_iP4Rora6nTUR1a2-7" value="вызываем функцию quick_sort()" style="shape=parallelogram;perimeter=parallelogramPerimeter;whiteSpace=wrap;html=1;fixedSize=1;rounded=1;glass=0;strokeWidth=1;shadow=0;" parent="WIyWlLk6GJQsqaUBKTNV-1" vertex="1">
          <mxGeometry x="135" y="310" width="170" height="60" as="geometry" />
        </mxCell>
        <mxCell id="JRmY_iP4Rora6nTUR1a2-8" value="" style="edgeStyle=orthogonalEdgeStyle;rounded=0;orthogonalLoop=1;jettySize=auto;html=1;" parent="WIyWlLk6GJQsqaUBKTNV-1" source="JRmY_iP4Rora6nTUR1a2-9" target="JRmY_iP4Rora6nTUR1a2-10" edge="1">
          <mxGeometry relative="1" as="geometry" />
        </mxCell>
        <mxCell id="JRmY_iP4Rora6nTUR1a2-9" value="Выводим отсортированный массив&amp;nbsp;" style="shape=parallelogram;perimeter=parallelogramPerimeter;whiteSpace=wrap;html=1;fixedSize=1;rounded=1;glass=0;strokeWidth=1;shadow=0;" parent="WIyWlLk6GJQsqaUBKTNV-1" vertex="1">
          <mxGeometry x="102.5" y="390" width="235" height="60" as="geometry" />
        </mxCell>
        <mxCell id="JRmY_iP4Rora6nTUR1a2-10" value="Конец&lt;br&gt;" style="rounded=1;whiteSpace=wrap;html=1;glass=0;strokeWidth=1;shadow=0;" parent="WIyWlLk6GJQsqaUBKTNV-1" vertex="1">
          <mxGeometry x="160" y="470" width="120" height="60" as="geometry" />
        </mxCell>
        <mxCell id="JRmY_iP4Rora6nTUR1a2-11" value="Функция quick_sort&lt;span style=&quot;font-family: ui-monospace, SFMono-Regular, &amp;quot;SF Mono&amp;quot;, Menlo, Consolas, &amp;quot;Liberation Mono&amp;quot;, monospace; font-size: 12px; font-style: normal; font-variant-ligatures: normal; font-variant-caps: normal; font-weight: 400; letter-spacing: normal; orphans: 2; text-align: start; text-indent: 0px; text-transform: none; widows: 2; word-spacing: 0px; -webkit-text-stroke-width: 0px; background-color: rgb(255, 255, 255); text-decoration-thickness: initial; text-decoration-style: initial; text-decoration-color: initial; float: none; display: inline !important;&quot;&gt;&lt;/span&gt;" style="text;whiteSpace=wrap;html=1;" parent="WIyWlLk6GJQsqaUBKTNV-1" vertex="1">
          <mxGeometry x="417.52" y="40" width="117.49" height="40" as="geometry" />
        </mxCell>
        <mxCell id="JRmY_iP4Rora6nTUR1a2-12" value="" style="edgeStyle=orthogonalEdgeStyle;rounded=0;orthogonalLoop=1;jettySize=auto;html=1;" parent="WIyWlLk6GJQsqaUBKTNV-1" source="JRmY_iP4Rora6nTUR1a2-13" target="JRmY_iP4Rora6nTUR1a2-14" edge="1">
          <mxGeometry relative="1" as="geometry" />
        </mxCell>
        <mxCell id="JRmY_iP4Rora6nTUR1a2-13" value="Начало" style="rounded=1;whiteSpace=wrap;html=1;fontSize=12;glass=0;strokeWidth=1;shadow=0;" parent="WIyWlLk6GJQsqaUBKTNV-1" vertex="1">
          <mxGeometry x="416.26" y="80" width="120" height="40" as="geometry" />
        </mxCell>
        <mxCell id="Z_o3nSTYenll-t-yREuo-1" value="" style="edgeStyle=orthogonalEdgeStyle;rounded=0;orthogonalLoop=1;jettySize=auto;html=1;" edge="1" parent="WIyWlLk6GJQsqaUBKTNV-1" source="JRmY_iP4Rora6nTUR1a2-14" target="Z_o3nSTYenll-t-yREuo-0">
          <mxGeometry relative="1" as="geometry" />
        </mxCell>
        <mxCell id="JRmY_iP4Rora6nTUR1a2-14" value="&lt;div style=&quot;text-align: start;&quot;&gt;&lt;font face=&quot;ui-monospace, SFMono-Regular, SF Mono, Menlo, Consolas, Liberation Mono, monospace&quot; color=&quot;#24292f&quot;&gt;&amp;nbsp; &amp;nbsp;Получаем массив arr,low (номер&amp;nbsp; &amp;nbsp; &amp;nbsp;первого) и high (последнего&amp;nbsp; &amp;nbsp; &amp;nbsp; &amp;nbsp;его элемента&lt;/font&gt;&lt;/div&gt;" style="shape=parallelogram;perimeter=parallelogramPerimeter;whiteSpace=wrap;html=1;fixedSize=1;rounded=1;" parent="WIyWlLk6GJQsqaUBKTNV-1" vertex="1">
          <mxGeometry x="360.03" y="140" width="232.49" height="70" as="geometry" />
        </mxCell>
        <mxCell id="Z_o3nSTYenll-t-yREuo-3" value="" style="edgeStyle=orthogonalEdgeStyle;rounded=0;orthogonalLoop=1;jettySize=auto;html=1;" edge="1" parent="WIyWlLk6GJQsqaUBKTNV-1" source="Z_o3nSTYenll-t-yREuo-0" target="Z_o3nSTYenll-t-yREuo-2">
          <mxGeometry relative="1" as="geometry" />
        </mxCell>
        <mxCell id="Z_o3nSTYenll-t-yREuo-11" value="" style="edgeStyle=orthogonalEdgeStyle;rounded=0;orthogonalLoop=1;jettySize=auto;html=1;" edge="1" parent="WIyWlLk6GJQsqaUBKTNV-1" source="Z_o3nSTYenll-t-yREuo-0" target="Z_o3nSTYenll-t-yREuo-10">
          <mxGeometry relative="1" as="geometry" />
        </mxCell>
        <mxCell id="Z_o3nSTYenll-t-yREuo-0" value="low &amp;lt; high" style="rhombus;whiteSpace=wrap;html=1;rounded=1;" vertex="1" parent="WIyWlLk6GJQsqaUBKTNV-1">
          <mxGeometry x="387.51" y="230" width="177.49" height="80" as="geometry" />
        </mxCell>
        <mxCell id="Z_o3nSTYenll-t-yREuo-7" value="" style="edgeStyle=orthogonalEdgeStyle;rounded=0;orthogonalLoop=1;jettySize=auto;html=1;" edge="1" parent="WIyWlLk6GJQsqaUBKTNV-1" source="Z_o3nSTYenll-t-yREuo-2" target="Z_o3nSTYenll-t-yREuo-6">
          <mxGeometry relative="1" as="geometry" />
        </mxCell>
        <mxCell id="Z_o3nSTYenll-t-yREuo-2" value="вызываем функцию partition и передаем в нее arr,low,high; результат работы записываем в переменную pi" style="shape=parallelogram;perimeter=parallelogramPerimeter;whiteSpace=wrap;html=1;fixedSize=1;rounded=1;" vertex="1" parent="WIyWlLk6GJQsqaUBKTNV-1">
          <mxGeometry x="360" y="330" width="232.52" height="60" as="geometry" />
        </mxCell>
        <mxCell id="Z_o3nSTYenll-t-yREuo-5" value="Да" style="text;html=1;strokeColor=none;fillColor=none;align=center;verticalAlign=middle;whiteSpace=wrap;rounded=0;" vertex="1" parent="WIyWlLk6GJQsqaUBKTNV-1">
          <mxGeometry x="443.75" y="310" width="30" height="20" as="geometry" />
        </mxCell>
        <mxCell id="Z_o3nSTYenll-t-yREuo-9" value="" style="edgeStyle=orthogonalEdgeStyle;rounded=0;orthogonalLoop=1;jettySize=auto;html=1;" edge="1" parent="WIyWlLk6GJQsqaUBKTNV-1" source="Z_o3nSTYenll-t-yREuo-6" target="Z_o3nSTYenll-t-yREuo-8">
          <mxGeometry relative="1" as="geometry" />
        </mxCell>
        <mxCell id="Z_o3nSTYenll-t-yREuo-6" value="вызываем функцию quickSort и передаем в нее arr,low,pi-1" style="shape=parallelogram;perimeter=parallelogramPerimeter;whiteSpace=wrap;html=1;fixedSize=1;rounded=1;" vertex="1" parent="WIyWlLk6GJQsqaUBKTNV-1">
          <mxGeometry x="395.01" y="410" width="162.51" height="60" as="geometry" />
        </mxCell>
        <mxCell id="Z_o3nSTYenll-t-yREuo-8" value="вызываем функцию quickSort и передаем в нее arr,pi+1,high" style="shape=parallelogram;perimeter=parallelogramPerimeter;whiteSpace=wrap;html=1;fixedSize=1;rounded=1;" vertex="1" parent="WIyWlLk6GJQsqaUBKTNV-1">
          <mxGeometry x="403.12" y="490" width="146.26" height="60" as="geometry" />
        </mxCell>
        <mxCell id="Z_o3nSTYenll-t-yREuo-10" value="Конец" style="whiteSpace=wrap;html=1;rounded=1;" vertex="1" parent="WIyWlLk6GJQsqaUBKTNV-1">
          <mxGeometry x="592.525" y="240" width="120" height="60" as="geometry" />
        </mxCell>
        <mxCell id="Z_o3nSTYenll-t-yREuo-12" value="" style="endArrow=classic;html=1;rounded=0;exitX=1;exitY=0.5;exitDx=0;exitDy=0;entryX=0.5;entryY=1;entryDx=0;entryDy=0;" edge="1" parent="WIyWlLk6GJQsqaUBKTNV-1" source="Z_o3nSTYenll-t-yREuo-8" target="Z_o3nSTYenll-t-yREuo-10">
          <mxGeometry width="50" height="50" relative="1" as="geometry">
            <mxPoint x="683.75" y="500" as="sourcePoint" />
            <mxPoint x="733.75" y="450" as="targetPoint" />
            <Array as="points">
              <mxPoint x="652.75" y="520" />
            </Array>
          </mxGeometry>
        </mxCell>
        <mxCell id="Z_o3nSTYenll-t-yREuo-14" value="Нет&lt;br&gt;" style="text;html=1;strokeColor=none;fillColor=none;align=center;verticalAlign=middle;whiteSpace=wrap;rounded=0;" vertex="1" parent="WIyWlLk6GJQsqaUBKTNV-1">
          <mxGeometry x="557.52" y="250" width="30" height="20" as="geometry" />
        </mxCell>
        <mxCell id="Z_o3nSTYenll-t-yREuo-16" value="Функция partition&lt;span style=&quot;font-family: ui-monospace, SFMono-Regular, &amp;quot;SF Mono&amp;quot;, Menlo, Consolas, &amp;quot;Liberation Mono&amp;quot;, monospace; font-size: 12px; font-style: normal; font-variant-ligatures: normal; font-variant-caps: normal; font-weight: 400; letter-spacing: normal; orphans: 2; text-align: start; text-indent: 0px; text-transform: none; widows: 2; word-spacing: 0px; -webkit-text-stroke-width: 0px; background-color: rgb(255, 255, 255); text-decoration-thickness: initial; text-decoration-style: initial; text-decoration-color: initial; float: none; display: inline !important;&quot;&gt;&lt;br&gt;&lt;/span&gt;" style="text;whiteSpace=wrap;html=1;" vertex="1" parent="WIyWlLk6GJQsqaUBKTNV-1">
          <mxGeometry x="821.26" y="40" width="117.49" height="40" as="geometry" />
        </mxCell>
        <mxCell id="Z_o3nSTYenll-t-yREuo-19" value="" style="edgeStyle=orthogonalEdgeStyle;rounded=0;orthogonalLoop=1;jettySize=auto;html=1;" edge="1" parent="WIyWlLk6GJQsqaUBKTNV-1" source="Z_o3nSTYenll-t-yREuo-17" target="Z_o3nSTYenll-t-yREuo-18">
          <mxGeometry relative="1" as="geometry" />
        </mxCell>
        <mxCell id="Z_o3nSTYenll-t-yREuo-17" value="Начало" style="rounded=1;whiteSpace=wrap;html=1;fontSize=12;glass=0;strokeWidth=1;shadow=0;" vertex="1" parent="WIyWlLk6GJQsqaUBKTNV-1">
          <mxGeometry x="820" y="80" width="120" height="40" as="geometry" />
        </mxCell>
        <mxCell id="Z_o3nSTYenll-t-yREuo-21" value="" style="edgeStyle=orthogonalEdgeStyle;rounded=0;orthogonalLoop=1;jettySize=auto;html=1;" edge="1" parent="WIyWlLk6GJQsqaUBKTNV-1" source="Z_o3nSTYenll-t-yREuo-18" target="Z_o3nSTYenll-t-yREuo-20">
          <mxGeometry relative="1" as="geometry" />
        </mxCell>
        <mxCell id="Z_o3nSTYenll-t-yREuo-18" value="&lt;div style=&quot;text-align: start;&quot;&gt;&lt;font face=&quot;ui-monospace, SFMono-Regular, SF Mono, Menlo, Consolas, Liberation Mono, monospace&quot; color=&quot;#24292f&quot;&gt;&amp;nbsp; &amp;nbsp;Получаем массив arr,low (номер&amp;nbsp; &amp;nbsp; &amp;nbsp;первого) и high (последнего&amp;nbsp; &amp;nbsp; &amp;nbsp; &amp;nbsp;его элемента&lt;/font&gt;&lt;/div&gt;" style="shape=parallelogram;perimeter=parallelogramPerimeter;whiteSpace=wrap;html=1;fixedSize=1;rounded=1;" vertex="1" parent="WIyWlLk6GJQsqaUBKTNV-1">
          <mxGeometry x="763.76" y="145" width="232.49" height="70" as="geometry" />
        </mxCell>
        <mxCell id="Z_o3nSTYenll-t-yREuo-23" value="" style="edgeStyle=orthogonalEdgeStyle;rounded=0;orthogonalLoop=1;jettySize=auto;html=1;" edge="1" parent="WIyWlLk6GJQsqaUBKTNV-1" source="Z_o3nSTYenll-t-yREuo-20" target="Z_o3nSTYenll-t-yREuo-22">
          <mxGeometry relative="1" as="geometry" />
        </mxCell>
        <mxCell id="Z_o3nSTYenll-t-yREuo-20" value="pivot = arr[high]" style="shape=parallelogram;perimeter=parallelogramPerimeter;whiteSpace=wrap;html=1;fixedSize=1;rounded=1;" vertex="1" parent="WIyWlLk6GJQsqaUBKTNV-1">
          <mxGeometry x="820.005" y="240" width="120" height="60" as="geometry" />
        </mxCell>
        <mxCell id="Z_o3nSTYenll-t-yREuo-52" value="" style="edgeStyle=orthogonalEdgeStyle;rounded=0;orthogonalLoop=1;jettySize=auto;html=1;" edge="1" parent="WIyWlLk6GJQsqaUBKTNV-1" source="Z_o3nSTYenll-t-yREuo-22" target="Z_o3nSTYenll-t-yREuo-51">
          <mxGeometry relative="1" as="geometry" />
        </mxCell>
        <mxCell id="Z_o3nSTYenll-t-yREuo-22" value="i = (low - &lt;span style=&quot;box-sizing: border-box; color: var(--color-prettylights-syntax-constant); font-family: ui-monospace, SFMono-Regular, &amp;quot;SF Mono&amp;quot;, Menlo, Consolas, &amp;quot;Liberation Mono&amp;quot;, monospace; text-align: start; background-color: rgb(255, 255, 255);&quot; class=&quot;pl-c1&quot;&gt;1&lt;/span&gt;&lt;span style=&quot;color: rgb(36, 41, 47); font-family: ui-monospace, SFMono-Regular, &amp;quot;SF Mono&amp;quot;, Menlo, Consolas, &amp;quot;Liberation Mono&amp;quot;, monospace; text-align: start; background-color: rgb(255, 255, 255);&quot;&gt;)&lt;/span&gt;" style="shape=parallelogram;perimeter=parallelogramPerimeter;whiteSpace=wrap;html=1;fixedSize=1;rounded=1;" vertex="1" parent="WIyWlLk6GJQsqaUBKTNV-1">
          <mxGeometry x="820.005" y="315" width="120" height="60" as="geometry" />
        </mxCell>
        <mxCell id="Z_o3nSTYenll-t-yREuo-28" value="" style="edgeStyle=orthogonalEdgeStyle;rounded=0;orthogonalLoop=1;jettySize=auto;html=1;" edge="1" parent="WIyWlLk6GJQsqaUBKTNV-1" source="Z_o3nSTYenll-t-yREuo-25" target="Z_o3nSTYenll-t-yREuo-27">
          <mxGeometry relative="1" as="geometry" />
        </mxCell>
        <mxCell id="Z_o3nSTYenll-t-yREuo-40" value="" style="edgeStyle=orthogonalEdgeStyle;rounded=0;orthogonalLoop=1;jettySize=auto;html=1;" edge="1" parent="WIyWlLk6GJQsqaUBKTNV-1" source="Z_o3nSTYenll-t-yREuo-25" target="Z_o3nSTYenll-t-yREuo-39">
          <mxGeometry relative="1" as="geometry" />
        </mxCell>
        <mxCell id="Z_o3nSTYenll-t-yREuo-25" value="от low до high-1 с шагом 1&amp;nbsp;" style="rhombus;whiteSpace=wrap;html=1;rounded=1;" vertex="1" parent="WIyWlLk6GJQsqaUBKTNV-1">
          <mxGeometry x="1035.01" y="130" width="170" height="70" as="geometry" />
        </mxCell>
        <mxCell id="Z_o3nSTYenll-t-yREuo-30" value="" style="edgeStyle=orthogonalEdgeStyle;rounded=0;orthogonalLoop=1;jettySize=auto;html=1;" edge="1" parent="WIyWlLk6GJQsqaUBKTNV-1" source="Z_o3nSTYenll-t-yREuo-27" target="Z_o3nSTYenll-t-yREuo-29">
          <mxGeometry relative="1" as="geometry" />
        </mxCell>
        <mxCell id="Z_o3nSTYenll-t-yREuo-27" value="j-ый элемент arr &amp;lt; pivot" style="rhombus;whiteSpace=wrap;html=1;rounded=1;" vertex="1" parent="WIyWlLk6GJQsqaUBKTNV-1">
          <mxGeometry x="1039.99" y="220" width="160.01" height="80" as="geometry" />
        </mxCell>
        <mxCell id="Z_o3nSTYenll-t-yREuo-32" value="" style="edgeStyle=orthogonalEdgeStyle;rounded=0;orthogonalLoop=1;jettySize=auto;html=1;" edge="1" parent="WIyWlLk6GJQsqaUBKTNV-1" source="Z_o3nSTYenll-t-yREuo-29" target="Z_o3nSTYenll-t-yREuo-31">
          <mxGeometry relative="1" as="geometry" />
        </mxCell>
        <mxCell id="Z_o3nSTYenll-t-yREuo-29" value="i = i+ 1" style="shape=parallelogram;perimeter=parallelogramPerimeter;whiteSpace=wrap;html=1;fixedSize=1;rounded=1;" vertex="1" parent="WIyWlLk6GJQsqaUBKTNV-1">
          <mxGeometry x="1059.995" y="325" width="120" height="60" as="geometry" />
        </mxCell>
        <mxCell id="Z_o3nSTYenll-t-yREuo-31" value="меняем местами&amp;nbsp;&lt;br&gt;i-ый и j-ый элемент&lt;br&gt;массива arr" style="shape=parallelogram;perimeter=parallelogramPerimeter;whiteSpace=wrap;html=1;fixedSize=1;rounded=1;" vertex="1" parent="WIyWlLk6GJQsqaUBKTNV-1">
          <mxGeometry x="1024.99" y="410" width="190" height="60" as="geometry" />
        </mxCell>
        <mxCell id="Z_o3nSTYenll-t-yREuo-33" value="" style="endArrow=classic;html=1;rounded=0;exitX=0;exitY=0.5;exitDx=0;exitDy=0;entryX=0;entryY=0.5;entryDx=0;entryDy=0;" edge="1" parent="WIyWlLk6GJQsqaUBKTNV-1" source="Z_o3nSTYenll-t-yREuo-31" target="Z_o3nSTYenll-t-yREuo-25">
          <mxGeometry width="50" height="50" relative="1" as="geometry">
            <mxPoint x="1020" y="430" as="sourcePoint" />
            <mxPoint x="1010" y="160" as="targetPoint" />
            <Array as="points">
              <mxPoint x="1010" y="440" />
              <mxPoint x="1010" y="165" />
            </Array>
          </mxGeometry>
        </mxCell>
        <mxCell id="Z_o3nSTYenll-t-yREuo-36" value="Да" style="text;html=1;align=center;verticalAlign=middle;resizable=0;points=[];autosize=1;strokeColor=none;fillColor=none;" vertex="1" parent="WIyWlLk6GJQsqaUBKTNV-1">
          <mxGeometry x="1130" y="290" width="40" height="30" as="geometry" />
        </mxCell>
        <mxCell id="Z_o3nSTYenll-t-yREuo-37" value="Нет" style="text;html=1;strokeColor=none;fillColor=none;align=center;verticalAlign=middle;whiteSpace=wrap;rounded=0;" vertex="1" parent="WIyWlLk6GJQsqaUBKTNV-1">
          <mxGeometry x="1024.99" y="240" width="23" height="10" as="geometry" />
        </mxCell>
        <mxCell id="Z_o3nSTYenll-t-yREuo-38" value="" style="endArrow=classic;html=1;rounded=0;exitX=0;exitY=0.5;exitDx=0;exitDy=0;" edge="1" parent="WIyWlLk6GJQsqaUBKTNV-1" source="Z_o3nSTYenll-t-yREuo-27">
          <mxGeometry width="50" height="50" relative="1" as="geometry">
            <mxPoint x="930" y="320" as="sourcePoint" />
            <mxPoint x="1010" y="260" as="targetPoint" />
          </mxGeometry>
        </mxCell>
        <mxCell id="Z_o3nSTYenll-t-yREuo-42" value="" style="edgeStyle=orthogonalEdgeStyle;rounded=0;orthogonalLoop=1;jettySize=auto;html=1;" edge="1" parent="WIyWlLk6GJQsqaUBKTNV-1" source="Z_o3nSTYenll-t-yREuo-39" target="Z_o3nSTYenll-t-yREuo-41">
          <mxGeometry relative="1" as="geometry" />
        </mxCell>
        <mxCell id="Z_o3nSTYenll-t-yREuo-39" value="меняем местами&amp;nbsp;&lt;br style=&quot;border-color: var(--border-color);&quot;&gt;i-ый +1 и high-ый элемент&lt;br style=&quot;border-color: var(--border-color);&quot;&gt;массива arr" style="shape=parallelogram;perimeter=parallelogramPerimeter;whiteSpace=wrap;html=1;fixedSize=1;rounded=1;" vertex="1" parent="WIyWlLk6GJQsqaUBKTNV-1">
          <mxGeometry x="1230" y="135" width="120" height="60" as="geometry" />
        </mxCell>
        <mxCell id="Z_o3nSTYenll-t-yREuo-44" value="" style="edgeStyle=orthogonalEdgeStyle;rounded=0;orthogonalLoop=1;jettySize=auto;html=1;" edge="1" parent="WIyWlLk6GJQsqaUBKTNV-1" source="Z_o3nSTYenll-t-yREuo-41" target="Z_o3nSTYenll-t-yREuo-43">
          <mxGeometry relative="1" as="geometry" />
        </mxCell>
        <mxCell id="Z_o3nSTYenll-t-yREuo-41" value="Возвращаем i+1" style="shape=parallelogram;perimeter=parallelogramPerimeter;whiteSpace=wrap;html=1;fixedSize=1;rounded=1;" vertex="1" parent="WIyWlLk6GJQsqaUBKTNV-1">
          <mxGeometry x="1230" y="220" width="120" height="60" as="geometry" />
        </mxCell>
        <mxCell id="Z_o3nSTYenll-t-yREuo-43" value="Конец" style="whiteSpace=wrap;html=1;rounded=1;" vertex="1" parent="WIyWlLk6GJQsqaUBKTNV-1">
          <mxGeometry x="1230" y="300" width="120" height="60" as="geometry" />
        </mxCell>
        <mxCell id="Z_o3nSTYenll-t-yREuo-50" value="" style="edgeStyle=orthogonalEdgeStyle;rounded=0;orthogonalLoop=1;jettySize=auto;html=1;" edge="1" parent="WIyWlLk6GJQsqaUBKTNV-1" source="Z_o3nSTYenll-t-yREuo-47" target="Z_o3nSTYenll-t-yREuo-25">
          <mxGeometry relative="1" as="geometry" />
        </mxCell>
        <mxCell id="Z_o3nSTYenll-t-yREuo-47" value="A" style="ellipse;whiteSpace=wrap;html=1;rounded=1;" vertex="1" parent="WIyWlLk6GJQsqaUBKTNV-1">
          <mxGeometry x="1100.02" y="70" width="39.99" height="40" as="geometry" />
        </mxCell>
        <mxCell id="Z_o3nSTYenll-t-yREuo-51" value="A" style="ellipse;whiteSpace=wrap;html=1;rounded=1;" vertex="1" parent="WIyWlLk6GJQsqaUBKTNV-1">
          <mxGeometry x="860.01" y="400" width="39.99" height="40" as="geometry" />
        </mxCell>
      </root>
    </mxGraphModel>
  </diagram>
</mxfile>
